<svg width="40" height="40" viewBox="0 0 40 40" fill="none" xmlns="http://www.w3.org/2000/svg">
<path d="M39.8986 34.2752C39.7228 33.4304 38.8955 32.8881 38.0504 33.064C37.2056 33.2398 36.6633 34.0673 36.8392 34.9121C36.9406 35.3988 36.8199 35.8975 36.5083 36.2808C36.3278 36.5027 35.9254 36.875 35.2584 36.875H4.74162C4.07458 36.875 3.67216 36.5027 3.49169 36.2808C3.18005 35.8976 3.05943 35.3988 3.16076 34.9121C4.78232 27.1234 11.6523 21.4339 19.5858 21.242C19.7232 21.2473 19.8612 21.25 20 21.25C20.1392 21.25 20.2778 21.2473 20.4158 21.242C26.0042 21.376 31.1695 24.2066 34.2976 28.8716C34.7781 29.5884 35.7487 29.7798 36.4656 29.2993C37.1823 28.8188 37.3738 27.8481 36.8931 27.1314C34.3293 23.3077 30.6064 20.5272 26.3616 19.1301C28.9483 17.1903 30.625 14.0998 30.625 10.625C30.625 4.76641 25.8587 0 20 0C14.1413 0 9.37498 4.76641 9.37498 10.625C9.37498 14.1019 11.0537 17.1941 13.6432 19.1337C11.2707 19.9148 9.04451 21.1302 7.09607 22.7328C3.52326 25.6716 1.03911 29.7708 0.101376 34.2752C-0.19253 35.6866 0.15958 37.1363 1.06724 38.2524C1.97044 39.363 3.30974 40 4.74162 40H35.2583C36.6903 40 38.0296 39.363 38.9327 38.2524C39.8405 37.1363 40.1925 35.6866 39.8986 34.2752ZM12.5 10.625C12.5 6.48945 15.8644 3.125 20 3.125C24.1355 3.125 27.5 6.48945 27.5 10.625C27.5 14.6332 24.3395 17.9171 20.3796 18.1155C20.2533 18.1131 20.1267 18.112 20 18.112C19.8739 18.112 19.7478 18.1132 19.6219 18.1155C15.6613 17.918 12.5 14.6337 12.5 10.625Z" fill="#3A3A3B"/>
</svg>
