<svg width="40" height="31" viewBox="0 0 40 31" fill="none" xmlns="http://www.w3.org/2000/svg">
<path d="M38.4375 18.0469C39.3005 18.0469 40 17.3473 40 16.4844V6.25C40 2.80375 37.1963 0 33.75 0H6.25C2.80375 0 0 2.80375 0 6.25V24.2969C0 27.7431 2.80375 30.5469 6.25 30.5469H33.75C37.1963 30.5469 40 27.7431 40 24.2969C40 23.4339 39.3005 22.7344 38.4375 22.7344C37.5745 22.7344 36.875 23.4339 36.875 24.2969C36.875 26.02 35.4731 27.4219 33.75 27.4219H6.25C4.52688 27.4219 3.125 26.02 3.125 24.2969V6.58109L16.6996 15.0221C17.7175 15.655 18.8587 15.9715 20 15.9715C21.1413 15.9715 22.2825 15.655 23.3004 15.0221L36.875 6.58109V16.4844C36.875 17.3473 37.5745 18.0469 38.4375 18.0469ZM21.6502 12.3683C20.6323 13.0012 19.3677 13.0012 18.3498 12.3683L4.42883 3.71187C4.94195 3.34266 5.57102 3.125 6.25 3.125H33.75C34.429 3.125 35.058 3.34273 35.5712 3.71195L21.6502 12.3683Z" fill="#3A3A3B"/>
</svg>
