<svg width="40" height="31" viewBox="0 0 40 31" fill="none" xmlns="http://www.w3.org/2000/svg">
<path d="M19.9882 30.152C24.849 30.152 29.3128 28.4036 33.2554 24.9557C36.4646 22.1493 38.5212 18.8705 39.4614 17.1658C40.1853 15.8536 40.1792 14.2898 39.4449 12.9825C38.4888 11.2802 36.4051 8.00537 33.1919 5.2005C29.238 1.74957 24.7956 0 19.9882 0C15.1789 0 10.738 1.7511 6.78962 5.20446C3.581 8.01025 1.50397 11.2857 0.551521 12.9883C-0.177849 14.292 -0.184258 15.8514 0.535042 17.16C0.969307 17.9504 1.69685 19.1772 2.69691 20.5334C3.20869 21.228 4.18678 21.3757 4.88135 20.8639C5.57593 20.3519 5.72364 19.3738 5.21186 18.6792C4.31372 17.4612 3.66218 16.3626 3.27338 15.6552C3.07685 15.2972 3.07868 14.8706 3.27827 14.5138C5.19416 11.0895 10.6574 3.12439 19.9882 3.12439C29.318 3.12439 34.7977 11.0882 36.7206 14.5123C36.9214 14.87 36.9233 15.2978 36.7255 15.6564C34.8398 19.0753 29.4336 27.027 19.9882 27.027C16.5104 27.027 13.2444 25.9399 10.2808 23.7958C9.58167 23.2901 8.6051 23.4469 8.09943 24.1458C7.59345 24.845 7.75031 25.8215 8.44916 26.3275C11.9568 28.865 15.8393 30.152 19.9882 30.152ZM10.7825 15.076C10.7825 9.99358 14.9174 5.85876 19.9998 5.85876C25.0821 5.85876 29.2167 9.99358 29.2167 15.076C29.2167 20.1584 25.0818 24.2929 19.9998 24.2929C14.9174 24.2929 10.7825 20.1584 10.7825 15.076ZM13.9069 15.076C13.9069 18.4354 16.6401 21.1685 19.9998 21.1685C23.3591 21.1685 26.0923 18.4354 26.0923 15.076C26.0923 11.7166 23.3591 8.98345 19.9998 8.98345C16.6401 8.98345 13.9069 11.7166 13.9069 15.076ZM18.2474 15.5002C19.4456 15.4199 20.4008 14.4183 20.4285 13.2178C20.4288 13.208 20.4291 13.1979 20.4291 13.1882C20.4365 12.5061 21.1915 12.1081 21.7554 12.4918C22.6444 13.0966 23.205 14.1476 23.1147 15.3229C22.9975 16.8442 21.7679 18.074 20.2466 18.1909C19.0714 18.2812 18.0204 17.7206 17.4155 16.832C17.0322 16.2683 17.4293 15.5127 18.111 15.5054C18.1562 15.5051 18.2017 15.5032 18.2474 15.5002Z" fill="#3A3A3B"/>
</svg>
