<svg width="40" height="39" viewBox="0 0 40 39" fill="none" xmlns="http://www.w3.org/2000/svg">
<path d="M39.5459 17.7471L23.2654 1.26927C23.2446 1.24806 23.2229 1.22748 23.2009 1.20753C21.4232 -0.397415 18.7369 -0.40315 16.9523 1.19425C16.9301 1.21413 16.9086 1.23463 16.8876 1.25568L0.458741 17.7423C-0.15204 18.3553 -0.153056 19.35 0.456553 19.9642C1.06624 20.5783 2.05554 20.5793 2.66624 19.9664L3.90624 18.722V32.2871C3.90624 35.7523 6.70999 38.5714 10.1562 38.5714H15.7812C16.6442 38.5714 17.3437 37.8681 17.3437 37.0003V24.196H22.8125V37.0003C22.8125 37.8681 23.512 38.5714 24.375 38.5714H29.8437C33.29 38.5714 36.0937 35.7523 36.0937 32.2871C36.0937 31.4194 35.3942 30.716 34.5312 30.716C33.6683 30.716 32.9687 31.4194 32.9687 32.2871C32.9687 34.0197 31.5669 35.4293 29.8437 35.4293H25.9375V22.6249C25.9375 21.7572 25.2379 21.0538 24.375 21.0538H15.7812C14.9183 21.0538 14.2187 21.7572 14.2187 22.6249V35.4293H10.1562C8.43311 35.4293 7.03124 34.0197 7.03124 32.2871V15.6336C7.03124 15.6179 7.031 15.6022 7.03053 15.5867L19.0583 3.51671C19.6437 3.01687 20.5022 3.01876 21.0854 3.52103L32.9687 15.5485V24.4316C32.9687 25.2994 33.6683 26.0027 34.5312 26.0027C35.3942 26.0027 36.0937 25.2994 36.0937 24.4316V18.7113L37.329 19.9617C37.6344 20.2708 38.0358 20.4255 38.4375 20.4255C38.8357 20.4255 39.234 20.2733 39.5387 19.9689C40.1509 19.3574 40.1542 18.3626 39.5459 17.7471Z" fill="#3A3A3B"/>
</svg>
