<svg width="31" height="42" viewBox="0 0 31 42" fill="none" xmlns="http://www.w3.org/2000/svg">
<path d="M12.6 35.504C10.976 35.504 9.478 35.182 8.106 34.538C6.762 33.866 5.6 32.914 4.62 31.682C3.668 30.45 2.926 28.952 2.394 27.188C1.862 25.424 1.596 23.422 1.596 21.182C1.596 18.942 1.862 16.954 2.394 15.218C2.926 13.454 3.668 11.984 4.62 10.808C5.6 9.604 6.762 8.694 8.106 8.078C9.478 7.434 10.976 7.112 12.6 7.112C14.224 7.112 15.708 7.434 17.052 8.078C18.424 8.694 19.586 9.604 20.538 10.808C21.518 12.012 22.274 13.496 22.806 15.26C23.338 16.996 23.604 18.97 23.604 21.182C23.604 23.422 23.338 25.424 22.806 27.188C22.274 28.952 21.518 30.45 20.538 31.682C19.586 32.914 18.424 33.866 17.052 34.538C15.708 35.182 14.224 35.504 12.6 35.504ZM12.6 30.17C14.028 30.17 15.162 29.372 16.002 27.776C16.842 26.152 17.262 23.954 17.262 21.182C17.262 18.438 16.842 16.296 16.002 14.756C15.162 13.216 14.028 12.446 12.6 12.446C11.172 12.446 10.038 13.216 9.198 14.756C8.358 16.296 7.938 18.438 7.938 21.182C7.938 23.954 8.358 26.152 9.198 27.776C10.038 29.372 11.172 30.17 12.6 30.17Z" fill="#08FDD8"/>
<path d="M17.6 36.504C15.976 36.504 14.478 36.182 13.106 35.538C11.762 34.866 10.6 33.914 9.62 32.682C8.668 31.45 7.926 29.952 7.394 28.188C6.862 26.424 6.596 24.422 6.596 22.182C6.596 19.942 6.862 17.954 7.394 16.218C7.926 14.454 8.668 12.984 9.62 11.808C10.6 10.604 11.762 9.694 13.106 9.078C14.478 8.434 15.976 8.112 17.6 8.112C19.224 8.112 20.708 8.434 22.052 9.078C23.424 9.694 24.586 10.604 25.538 11.808C26.518 13.012 27.274 14.496 27.806 16.26C28.338 17.996 28.604 19.97 28.604 22.182C28.604 24.422 28.338 26.424 27.806 28.188C27.274 29.952 26.518 31.45 25.538 32.682C24.586 33.914 23.424 34.866 22.052 35.538C20.708 36.182 19.224 36.504 17.6 36.504ZM17.6 31.17C19.028 31.17 20.162 30.372 21.002 28.776C21.842 27.152 22.262 24.954 22.262 22.182C22.262 19.438 21.842 17.296 21.002 15.756C20.162 14.216 19.028 13.446 17.6 13.446C16.172 13.446 15.038 14.216 14.198 15.756C13.358 17.296 12.938 19.438 12.938 22.182C12.938 24.954 13.358 27.152 14.198 28.776C15.038 30.372 16.172 31.17 17.6 31.17Z" fill="#FC0853"/>
</svg>
