<svg width="40" height="40" viewBox="0 0 40 40" fill="none" xmlns="http://www.w3.org/2000/svg">
<path d="M20 10.9375C15.0029 10.9375 10.9375 15.003 10.9375 20C10.9375 24.997 15.0029 29.0625 20 29.0625C20.9334 29.0625 21.8543 28.9209 22.7372 28.6414C23.5599 28.381 24.0157 27.503 23.7553 26.6802C23.495 25.8575 22.6167 25.4016 21.7941 25.662C21.2166 25.8448 20.613 25.9375 20 25.9375C16.7261 25.9375 14.0625 23.274 14.0625 20C14.0625 16.726 16.7261 14.0625 20 14.0625C23.2739 14.0625 25.9375 16.726 25.9375 20C25.9375 20.569 25.8575 21.1312 25.6996 21.6708C25.4573 22.4991 25.9324 23.3668 26.7607 23.6091C27.5891 23.8513 28.4567 23.3763 28.6991 22.548C28.9402 21.7233 29.0625 20.8659 29.0625 20C29.0625 15.003 24.9971 10.9375 20 10.9375Z" fill="#3A3A3B"/>
<path d="M35.3125 14.5313H34.5257C34.3187 14.5313 34.131 14.4009 34.0498 14.2042L34.0359 14.1705C33.9517 13.9678 33.992 13.7423 34.1383 13.5959L34.6948 13.0395C36.5224 11.2118 36.5224 8.23797 34.6948 6.41031L33.5899 5.30547C32.7045 4.42008 31.5273 3.9325 30.2753 3.9325C29.0231 3.9325 27.846 4.42008 26.9607 5.30547L26.4044 5.8618C26.2579 6.00828 26.0321 6.04844 25.8304 5.96461L25.8009 5.95242C25.5991 5.86906 25.4688 5.68148 25.4688 5.47453V4.6875C25.4688 2.10281 23.366 0 20.7813 0H19.2188C16.6341 0 14.5313 2.10281 14.5313 4.6875V5.47453C14.5313 5.68148 14.401 5.86906 14.2009 5.95164L14.1704 5.9643C13.968 6.04852 13.7422 6.00828 13.5959 5.86187L13.0395 5.30547C12.1541 4.42008 10.977 3.9325 9.72484 3.9325C8.47273 3.9325 7.29563 4.42008 6.41023 5.30547L5.30539 6.41016C3.47773 8.23789 3.47773 11.2116 5.30547 13.0394L5.8618 13.5957C6.0082 13.7422 6.04836 13.9677 5.96187 14.1762L5.95242 14.199C5.86914 14.4008 5.68141 14.5312 5.47445 14.5312H4.6875C2.10281 14.5312 0 16.634 0 19.2187V20.7812C0 23.3659 2.10281 25.4687 4.6875 25.4687H5.47437C5.68141 25.4687 5.86898 25.5991 5.95031 25.7958L5.96422 25.8295C6.04836 26.0322 6.00812 26.2577 5.86172 26.4041L5.30539 26.9605C4.42 27.8459 3.93242 29.023 3.93242 30.2752C3.93242 31.5272 4.42 32.7043 5.30531 33.5897L6.41016 34.6945C7.29555 35.5799 8.47273 36.0675 9.72477 36.0675C10.977 36.0675 12.1541 35.5799 13.0394 34.6945L13.5957 34.1382C13.742 33.9917 13.9679 33.9516 14.1697 34.0354L14.1991 34.0476C14.4009 34.1309 14.5312 34.3185 14.5312 34.5255V35.3125C14.5312 37.8972 16.6341 40 19.2188 40H20.7812C23.3659 40 25.4688 37.8972 25.4688 35.3125V34.5255C25.4688 34.3185 25.5991 34.1309 25.7991 34.0484L25.8297 34.0357C26.0323 33.9516 26.2579 33.9918 26.4042 34.1381L26.9606 34.6945C27.8459 35.5799 29.0231 36.0675 30.2752 36.0675C31.5273 36.0675 32.7045 35.5799 33.5898 34.6945L34.6947 33.5897C35.58 32.7044 36.0676 31.5272 36.0676 30.2752C36.0676 29.023 35.58 27.8459 34.6947 26.9606L34.1383 26.4042C33.9918 26.2578 33.9516 26.0323 34.0358 25.8296L34.0476 25.801C34.1309 25.5992 34.3186 25.4688 34.5255 25.4688H35.3125C37.8972 25.4688 40 23.366 40 20.7813V19.2188C40 16.6341 37.8972 14.5313 35.3125 14.5313ZM36.875 20.7812C36.875 21.6428 36.1741 22.3438 35.3125 22.3438H34.5255C33.0486 22.3438 31.7273 23.2325 31.1592 24.608L31.1491 24.6326C30.5789 26.0075 30.8847 27.5701 31.9284 28.6139L32.4849 29.1703C32.78 29.4654 32.9425 29.8578 32.9425 30.2752C32.9425 30.6925 32.78 31.0848 32.4848 31.38L31.3801 32.4848C31.0848 32.7799 30.6925 32.9425 30.2752 32.9425C29.8577 32.9425 29.4654 32.78 29.1703 32.4848L28.6138 31.9284C27.5695 30.8842 26.0059 30.5787 24.6302 31.1501L24.6081 31.1592C23.2326 31.7272 22.3438 33.0485 22.3438 34.5255V35.3125C22.3438 36.1741 21.6428 36.875 20.7812 36.875H19.2188C18.3572 36.875 17.6562 36.1741 17.6562 35.3125V34.5255C17.6562 33.0485 16.7674 31.7272 15.3902 31.1585L15.3691 31.1498C14.909 30.9586 14.428 30.8657 13.9522 30.8657C13.006 30.8657 12.081 31.2336 11.3861 31.9284L10.8297 32.4849C10.5345 32.78 10.1423 32.9425 9.72484 32.9425C9.3075 32.9425 8.91508 32.7799 8.62 32.4848L7.51516 31.38C7.22 31.0848 7.0575 30.6925 7.0575 30.2752C7.0575 29.8578 7.22 29.4654 7.51516 29.1703L8.07156 28.6139C9.11539 27.5701 9.42117 26.0075 8.85094 24.6326L8.84078 24.608C8.27266 23.2325 6.95133 22.3438 5.47445 22.3438H4.6875C3.82594 22.3438 3.125 21.6428 3.125 20.7812V19.2188C3.125 18.3572 3.82594 17.6562 4.6875 17.6562H5.47445C6.95141 17.6562 8.27273 16.7675 8.84289 15.387L8.85016 15.3692C9.42141 13.9939 9.11578 12.4305 8.07148 11.3861L7.51516 10.8298C6.90586 10.2205 6.90586 9.22922 7.51516 8.62L8.61992 7.51516C8.91516 7.22008 9.3075 7.0575 9.72484 7.0575C10.1423 7.0575 10.5346 7.22 10.8297 7.51516L11.3862 8.07164C12.4306 9.11586 13.9941 9.42148 15.3698 8.84992L15.3919 8.84078C16.7674 8.27281 17.6562 6.95148 17.6562 5.47453V4.6875C17.6562 3.82594 18.3572 3.125 19.2188 3.125H20.7812C21.6428 3.125 22.3438 3.82594 22.3438 4.6875V5.47453C22.3438 6.95148 23.2326 8.27281 24.6098 8.84141L24.6309 8.85016C26.0059 9.42125 27.5695 9.1157 28.6139 8.07148L29.1703 7.515C29.4655 7.21992 29.8577 7.05742 30.2752 7.05742C30.6925 7.05742 31.0849 7.22 31.38 7.51508L32.4848 8.61992C33.0941 9.22914 33.0941 10.2204 32.4849 10.8296L31.9284 11.3861C30.8842 12.4305 30.5786 13.9938 31.1475 15.3634L31.1592 15.392C31.7273 16.7675 33.0487 17.6562 34.5255 17.6562H35.3125C36.1741 17.6562 36.875 18.3572 36.875 19.2188V20.7812Z" fill="#3A3A3B"/>
</svg>
