<svg width="642" height="488" viewBox="0 0 642 488" fill="none" xmlns="http://www.w3.org/2000/svg">
<g clip-path="url(#clip0)">
<path d="M310.606 431.459C172.424 420.931 7.63512 313.731 16.0248 203.351C24.4144 92.9708 184.014 -9.78371 322.196 0.744844C460.379 11.2734 539.921 217.555 531.532 327.935C523.142 438.315 448.789 441.988 310.606 431.459Z" fill="#F2F2F2"/>
<path d="M322.195 449.188C481.502 449.188 610.646 441.267 610.646 431.495C610.646 421.723 481.502 413.801 322.195 413.801C162.888 413.801 33.7439 421.723 33.7439 431.495C33.7439 441.267 162.888 449.188 322.195 449.188Z" fill="#3F3D56"/>
<path opacity="0.1" d="M322.195 442.91C457.89 442.91 567.892 437.671 567.892 431.209C567.892 424.747 457.89 419.509 322.195 419.509C186.501 419.509 76.4985 424.747 76.4985 431.209C76.4985 437.671 186.501 442.91 322.195 442.91Z" fill="black"/>
<path d="M120.963 488C187.77 488 241.927 483.273 241.927 477.441C241.927 471.609 187.77 466.882 120.963 466.882C54.1572 466.882 0 471.609 0 477.441C0 483.273 54.1572 488 120.963 488Z" fill="#3F3D56"/>
<path d="M540.529 92.4632H111.843V429.212H540.529V92.4632Z" fill="#3F3D56"/>
<path d="M321.309 138.483H215.552C215.383 138.483 215.216 138.45 215.06 138.386C214.904 138.322 214.762 138.227 214.643 138.108C214.523 137.988 214.428 137.847 214.364 137.69C214.299 137.534 214.266 137.367 214.266 137.198C214.266 137.029 214.299 136.862 214.364 136.706C214.428 136.55 214.523 136.408 214.643 136.288C214.762 136.169 214.904 136.074 215.06 136.01C215.216 135.946 215.383 135.913 215.552 135.913H321.309C321.648 135.914 321.974 136.049 322.214 136.29C322.454 136.531 322.589 136.858 322.589 137.198C322.589 137.538 322.454 137.865 322.214 138.106C321.974 138.347 321.648 138.482 321.309 138.483V138.483Z" fill="#F2F2F2"/>
<path d="M437.076 152.618H270.74C270.4 152.618 270.074 152.483 269.833 152.242C269.592 152.001 269.457 151.674 269.457 151.333C269.457 150.993 269.592 150.666 269.833 150.425C270.074 150.184 270.4 150.048 270.74 150.048H437.076C437.245 150.048 437.411 150.082 437.567 150.146C437.723 150.211 437.864 150.305 437.984 150.425C438.103 150.544 438.197 150.686 438.262 150.842C438.326 150.997 438.359 151.165 438.359 151.333C438.359 151.502 438.326 151.669 438.262 151.825C438.197 151.981 438.103 152.123 437.984 152.242C437.864 152.361 437.723 152.456 437.567 152.521C437.411 152.585 437.245 152.618 437.076 152.618V152.618Z" fill="#F2F2F2"/>
<path d="M321.822 166.754H216.065C215.725 166.754 215.399 166.618 215.158 166.377C214.917 166.136 214.782 165.809 214.782 165.469C214.782 165.128 214.917 164.801 215.158 164.56C215.399 164.319 215.725 164.184 216.065 164.184H321.822C322.162 164.184 322.489 164.319 322.73 164.56C322.97 164.801 323.105 165.128 323.105 165.469C323.105 165.809 322.97 166.136 322.73 166.377C322.489 166.618 322.162 166.754 321.822 166.754V166.754Z" fill="#F2F2F2"/>
<path d="M437.076 167.011H331.32C330.979 167.011 330.653 166.875 330.412 166.634C330.171 166.393 330.036 166.066 330.036 165.726C330.036 165.385 330.171 165.058 330.412 164.817C330.653 164.576 330.979 164.441 331.32 164.441H437.076C437.417 164.441 437.743 164.576 437.984 164.817C438.224 165.058 438.36 165.385 438.36 165.726C438.36 166.066 438.224 166.393 437.984 166.634C437.743 166.875 437.417 167.011 437.076 167.011V167.011Z" fill="#F2F2F2"/>
<path d="M322.079 180.889H216.322C215.982 180.889 215.655 180.754 215.415 180.513C215.174 180.272 215.039 179.945 215.039 179.604C215.039 179.263 215.174 178.936 215.415 178.695C215.655 178.454 215.982 178.319 216.322 178.319H322.079C322.419 178.319 322.745 178.454 322.986 178.695C323.227 178.936 323.362 179.263 323.362 179.604C323.362 179.945 323.227 180.272 322.986 180.513C322.745 180.754 322.419 180.889 322.079 180.889V180.889Z" fill="#F2F2F2"/>
<path d="M322.335 195.024H216.579C216.238 195.024 215.912 194.889 215.671 194.648C215.431 194.407 215.295 194.08 215.295 193.739C215.295 193.398 215.431 193.072 215.671 192.831C215.912 192.59 216.238 192.454 216.579 192.454H322.335C322.676 192.454 323.002 192.59 323.243 192.831C323.484 193.072 323.619 193.398 323.619 193.739C323.619 194.08 323.484 194.407 323.243 194.648C323.002 194.889 322.676 195.024 322.335 195.024V195.024Z" fill="#F2F2F2"/>
<path d="M370.336 138.74H340.047C339.706 138.74 339.38 138.605 339.139 138.364C338.899 138.123 338.763 137.796 338.763 137.455C338.763 137.114 338.899 136.787 339.139 136.546C339.38 136.305 339.706 136.17 340.047 136.17H370.336C370.677 136.17 371.003 136.305 371.244 136.546C371.485 136.787 371.62 137.114 371.62 137.455C371.62 137.796 371.485 138.123 371.244 138.364C371.003 138.605 370.677 138.74 370.336 138.74V138.74Z" fill="#F2F2F2"/>
<path d="M370.336 180.889H340.047C339.706 180.889 339.38 180.754 339.139 180.513C338.899 180.272 338.763 179.945 338.763 179.604C338.763 179.263 338.899 178.936 339.139 178.695C339.38 178.454 339.706 178.319 340.047 178.319H370.336C370.677 178.319 371.003 178.454 371.244 178.695C371.485 178.936 371.62 179.263 371.62 179.604C371.62 179.945 371.485 180.272 371.244 180.513C371.003 180.754 370.677 180.889 370.336 180.889V180.889Z" fill="#F2F2F2"/>
<path d="M370.336 194.767H340.047C339.878 194.768 339.711 194.735 339.555 194.67C339.399 194.606 339.257 194.511 339.138 194.392C339.018 194.272 338.923 194.131 338.859 193.975C338.794 193.818 338.761 193.651 338.761 193.482C338.761 193.313 338.794 193.146 338.859 192.99C338.923 192.834 339.018 192.692 339.138 192.573C339.257 192.453 339.399 192.359 339.555 192.294C339.711 192.23 339.878 192.197 340.047 192.197H370.336C370.505 192.197 370.672 192.23 370.828 192.294C370.984 192.359 371.126 192.453 371.246 192.573C371.365 192.692 371.46 192.834 371.525 192.99C371.589 193.146 371.623 193.313 371.623 193.482C371.623 193.651 371.589 193.818 371.525 193.975C371.46 194.131 371.365 194.272 371.246 194.392C371.126 194.511 370.984 194.606 370.828 194.67C370.672 194.735 370.505 194.768 370.336 194.767V194.767Z" fill="#F2F2F2"/>
<path d="M421.161 194.767H390.872C390.532 194.766 390.206 194.631 389.966 194.39C389.726 194.149 389.591 193.823 389.591 193.482C389.591 193.142 389.726 192.815 389.966 192.574C390.206 192.334 390.532 192.198 390.872 192.197H421.161C421.33 192.197 421.497 192.23 421.653 192.294C421.809 192.359 421.951 192.453 422.071 192.573C422.19 192.692 422.285 192.834 422.35 192.99C422.414 193.146 422.447 193.313 422.447 193.482C422.447 193.651 422.414 193.818 422.35 193.975C422.285 194.131 422.19 194.272 422.071 194.392C421.951 194.511 421.809 194.606 421.653 194.67C421.497 194.735 421.33 194.768 421.161 194.767V194.767Z" fill="#F2F2F2"/>
<path d="M245.585 152.618H215.295C214.955 152.618 214.629 152.483 214.388 152.242C214.147 152.001 214.012 151.674 214.012 151.333C214.012 150.993 214.147 150.666 214.388 150.425C214.629 150.184 214.955 150.048 215.295 150.048H245.585C245.925 150.048 246.252 150.184 246.492 150.425C246.733 150.666 246.868 150.993 246.868 151.333C246.868 151.674 246.733 152.001 246.492 152.242C246.252 152.483 245.925 152.618 245.585 152.618V152.618Z" fill="#F2F2F2"/>
<path d="M321.437 346.657H215.68C215.34 346.657 215.014 346.522 214.773 346.281C214.532 346.04 214.397 345.713 214.397 345.372C214.397 345.031 214.532 344.705 214.773 344.464C215.014 344.223 215.34 344.087 215.68 344.087H321.437C321.777 344.087 322.104 344.223 322.345 344.464C322.585 344.705 322.72 345.031 322.72 345.372C322.72 345.713 322.585 346.04 322.345 346.281C322.104 346.522 321.777 346.657 321.437 346.657Z" fill="#F2F2F2"/>
<path d="M320.924 374.928H215.167C214.827 374.928 214.5 374.792 214.259 374.551C214.019 374.31 213.884 373.984 213.884 373.643C213.884 373.302 214.019 372.975 214.259 372.734C214.5 372.493 214.827 372.358 215.167 372.358H320.924C321.264 372.358 321.59 372.493 321.831 372.734C322.072 372.975 322.207 373.302 322.207 373.643C322.207 373.984 322.072 374.31 321.831 374.551C321.59 374.792 321.264 374.928 320.924 374.928Z" fill="#F2F2F2"/>
<path d="M321.18 389.063H215.424C215.255 389.063 215.088 389.03 214.932 388.966C214.776 388.902 214.634 388.807 214.514 388.688C214.395 388.568 214.3 388.427 214.235 388.27C214.171 388.114 214.137 387.947 214.137 387.778C214.137 387.609 214.171 387.442 214.235 387.286C214.3 387.13 214.395 386.988 214.514 386.869C214.634 386.749 214.776 386.655 214.932 386.59C215.088 386.526 215.255 386.493 215.424 386.493H321.18C321.349 386.493 321.516 386.526 321.672 386.59C321.828 386.655 321.97 386.749 322.089 386.869C322.209 386.988 322.304 387.13 322.368 387.286C322.433 387.442 322.466 387.609 322.466 387.778C322.466 387.947 322.433 388.114 322.368 388.27C322.304 388.427 322.209 388.568 322.089 388.688C321.97 388.807 321.828 388.902 321.672 388.966C321.516 389.03 321.349 389.063 321.18 389.063V389.063Z" fill="#F2F2F2"/>
<path d="M366.358 375.185H336.068C335.728 375.185 335.402 375.049 335.161 374.808C334.92 374.567 334.785 374.241 334.785 373.9C334.785 373.559 334.92 373.232 335.161 372.991C335.402 372.75 335.728 372.615 336.068 372.615H366.358C366.698 372.615 367.025 372.75 367.265 372.991C367.506 373.232 367.641 373.559 367.641 373.9C367.641 374.241 367.506 374.567 367.265 374.808C367.025 375.049 366.698 375.185 366.358 375.185Z" fill="#F2F2F2"/>
<path d="M366.358 389.063H336.068C335.728 389.063 335.402 388.928 335.161 388.687C334.92 388.446 334.785 388.119 334.785 387.778C334.785 387.437 334.92 387.11 335.161 386.869C335.402 386.628 335.728 386.493 336.068 386.493H366.358C366.698 386.493 367.025 386.628 367.265 386.869C367.506 387.11 367.641 387.437 367.641 387.778C367.641 388.119 367.506 388.446 367.265 388.687C367.025 388.928 366.698 389.063 366.358 389.063V389.063Z" fill="#F2F2F2"/>
<path d="M417.183 375.185H386.893C386.553 375.185 386.226 375.049 385.986 374.808C385.745 374.567 385.61 374.241 385.61 373.9C385.61 373.559 385.745 373.232 385.986 372.991C386.226 372.75 386.553 372.615 386.893 372.615H417.183C417.523 372.615 417.849 372.75 418.09 372.991C418.331 373.232 418.466 373.559 418.466 373.9C418.466 374.241 418.331 374.567 418.09 374.808C417.849 375.049 417.523 375.185 417.183 375.185V375.185Z" fill="#F2F2F2"/>
<path d="M437.204 360.793H270.869C270.528 360.793 270.202 360.657 269.961 360.416C269.721 360.175 269.585 359.848 269.585 359.508C269.585 359.167 269.721 358.84 269.961 358.599C270.202 358.358 270.528 358.223 270.869 358.223H437.204C437.545 358.223 437.871 358.358 438.112 358.599C438.353 358.84 438.488 359.167 438.488 359.508C438.488 359.848 438.353 360.175 438.112 360.416C437.871 360.657 437.545 360.793 437.204 360.793V360.793Z" fill="#F2F2F2"/>
<path d="M245.713 360.793H215.424C215.083 360.793 214.757 360.657 214.516 360.416C214.275 360.175 214.14 359.848 214.14 359.508C214.14 359.167 214.275 358.84 214.516 358.599C214.757 358.358 215.083 358.223 215.424 358.223H245.713C246.053 358.223 246.38 358.358 246.621 358.599C246.861 358.84 246.997 359.167 246.997 359.508C246.997 359.848 246.861 360.175 246.621 360.416C246.38 360.657 246.053 360.793 245.713 360.793V360.793Z" fill="#F2F2F2"/>
<path d="M437.205 403.455H270.869C270.7 403.456 270.533 403.423 270.377 403.358C270.221 403.294 270.079 403.199 269.96 403.08C269.84 402.961 269.745 402.819 269.681 402.663C269.616 402.507 269.583 402.339 269.583 402.17C269.583 402.001 269.616 401.834 269.681 401.678C269.745 401.522 269.84 401.38 269.96 401.261C270.079 401.141 270.221 401.047 270.377 400.982C270.533 400.918 270.7 400.885 270.869 400.885H437.205C437.545 400.885 437.871 401.021 438.112 401.262C438.353 401.503 438.488 401.83 438.488 402.17C438.488 402.511 438.353 402.838 438.112 403.079C437.871 403.32 437.545 403.455 437.205 403.455V403.455Z" fill="#F2F2F2"/>
<path d="M245.713 403.455H215.424C215.255 403.456 215.088 403.423 214.932 403.358C214.776 403.294 214.634 403.199 214.514 403.08C214.395 402.961 214.3 402.819 214.235 402.663C214.171 402.507 214.137 402.339 214.137 402.17C214.137 402.001 214.171 401.834 214.235 401.678C214.3 401.522 214.395 401.38 214.514 401.261C214.634 401.141 214.776 401.047 214.932 400.982C215.088 400.918 215.255 400.885 215.424 400.885H245.713C245.882 400.885 246.049 400.918 246.205 400.982C246.361 401.047 246.503 401.141 246.622 401.261C246.742 401.38 246.837 401.522 246.901 401.678C246.966 401.834 246.999 402.001 246.999 402.17C246.999 402.339 246.966 402.507 246.901 402.663C246.837 402.819 246.742 402.961 246.622 403.08C246.503 403.199 246.361 403.294 246.205 403.358C246.049 403.423 245.882 403.456 245.713 403.455Z" fill="#F2F2F2"/>
<path d="M295.896 228.949L254.826 269.556L295.896 310.163L305.137 300.911L274.078 269.813L305.394 238.458L295.896 228.949Z" fill="#6C63FF"/>
<path d="M356.475 228.949L397.546 269.556L356.475 310.163L347.234 300.911L378.294 269.813L346.978 238.458L356.475 228.949Z" fill="#6C63FF"/>
<path d="M123.244 106.161C126.077 106.161 128.374 103.862 128.374 101.025C128.374 98.1876 126.077 95.8877 123.244 95.8877C120.41 95.8877 118.113 98.1876 118.113 101.025C118.113 103.862 120.41 106.161 123.244 106.161Z" fill="#6C63FF"/>
<path d="M136.925 106.161C139.759 106.161 142.056 103.862 142.056 101.025C142.056 98.1876 139.759 95.8877 136.925 95.8877C134.092 95.8877 131.795 98.1876 131.795 101.025C131.795 103.862 134.092 106.161 136.925 106.161Z" fill="#6C63FF"/>
<path d="M150.607 106.161C153.44 106.161 155.737 103.862 155.737 101.025C155.737 98.1876 153.44 95.8877 150.607 95.8877C147.773 95.8877 145.476 98.1876 145.476 101.025C145.476 103.862 147.773 106.161 150.607 106.161Z" fill="#6C63FF"/>
<path opacity="0.1" d="M540.529 109.586H111.843V111.298H540.529V109.586Z" fill="black"/>
<path d="M642 346.71C642 383.108 620.388 395.817 593.729 395.817C567.07 395.817 545.458 383.108 545.458 346.71C545.458 310.312 593.729 264.008 593.729 264.008C593.729 264.008 642 310.312 642 346.71Z" fill="#F2F2F2"/>
<path d="M591.971 390.249L592.466 359.787L613.04 322.102L592.543 355.009L592.765 341.312L606.944 314.047L592.824 337.687L593.224 313.053L608.407 291.346L593.286 309.179L593.536 264.009L591.967 323.807L592.096 321.34L576.658 297.681L591.848 326.075L590.41 353.588L590.367 352.857L572.57 327.96L590.313 355.437L590.133 358.877L590.101 358.929L590.116 359.212L586.466 429.014H591.342L591.927 392.96L609.627 365.55L591.971 390.249Z" fill="#3F3D56"/>
<path opacity="0.1" d="M120.963 484.253C177.867 484.253 223.997 481.127 223.997 477.271C223.997 473.414 177.867 470.288 120.963 470.288C64.0591 470.288 17.9292 473.414 17.9292 477.271C17.9292 481.127 64.0591 484.253 120.963 484.253Z" fill="black"/>
<path d="M69.9019 428.693C68.4209 429.519 66.8586 430.189 65.2399 430.692C62.3446 431.484 59.2502 431.194 56.3257 431.87C55.1284 432.146 53.8253 432.725 53.4445 433.895C53.1652 434.753 53.4691 435.68 53.76 436.534C56.9914 446.02 58.9391 456.092 64.0925 464.684C66.2583 468.293 68.9464 471.56 72.0692 474.38C73.2407 475.437 74.5684 476.471 76.1368 476.637C76.8596 476.714 77.5898 476.598 78.2536 476.301C78.9174 476.005 79.4914 475.538 79.9176 474.949C80.3438 474.359 80.6071 473.668 80.681 472.944C80.7549 472.22 80.6368 471.489 80.3385 470.826C79.8764 469.798 79.0175 469.001 78.4636 468.02C77.8629 466.77 77.5106 465.415 77.4263 464.03C76.9172 459.973 76.4267 455.732 77.8308 451.893C78.7724 449.317 80.4998 447.122 81.9389 444.788C83.3779 442.455 84.5735 439.781 84.2533 437.058C84.0348 435.199 83.1292 433.498 82.1726 431.89C81.214 430.279 79.3196 425.949 77.3938 425.412C75.3948 424.854 71.6452 427.799 69.9019 428.693Z" fill="#2F2E41"/>
<path d="M122.596 461.46C122.626 462.378 122.498 463.294 122.218 464.168C121.615 465.762 120.119 466.854 119.347 468.373C118.272 470.485 118.759 473.038 119.471 475.299C119.917 476.716 120.503 478.191 121.701 479.067C122.726 479.703 123.892 480.077 125.095 480.156C135.377 481.581 145.822 480.763 156.197 481.062C158.088 481.116 160.09 481.182 161.741 480.257C163.392 479.332 164.412 477.006 163.29 475.481C162.282 474.112 160.288 474.125 158.591 474.044C154.172 473.819 149.964 472.084 146.669 469.127C146.02 468.571 145.456 467.922 144.997 467.2C144.644 466.559 144.352 465.887 144.123 465.192C142.668 461.248 140.938 457.41 138.944 453.709C138.386 452.673 137.755 451.595 136.718 451.04C135.959 450.695 135.135 450.515 134.301 450.512C131.715 450.344 125.019 449.463 123.019 451.476C121.171 453.337 122.637 459.097 122.596 461.46Z" fill="#2F2E41"/>
<path d="M138.508 231.555C147.631 231.555 155.026 224.151 155.026 215.017C155.026 205.883 147.631 198.479 138.508 198.479C129.386 198.479 121.991 205.883 121.991 215.017C121.991 224.151 129.386 231.555 138.508 231.555Z" fill="#FBBEBE"/>
<path d="M123.593 228.673C122.61 231.306 120.944 233.779 118.519 235.196L141.364 239.862C140.535 236.524 140.426 233.047 141.044 229.663C141.271 228.844 141.317 227.986 141.18 227.147C140.751 225.487 138.885 224.689 137.216 224.308C133.046 223.356 129.359 222.846 125.484 221.002C124.3 223.032 124.466 226.332 123.593 228.673Z" fill="#FBBEBE"/>
<path d="M118.328 229.004C120.786 227.891 123.463 227.349 126.16 227.42C128.857 227.49 131.502 228.171 133.898 229.412C136.827 230.957 139.252 233.29 141.635 235.591C143.831 237.712 146.174 240.141 146.33 243.193C146.405 244.671 145.945 246.117 145.712 247.578C145.294 250.601 145.825 253.68 147.233 256.387C148.64 259.094 150.854 261.295 153.567 262.686C155.382 265.713 155.757 269.38 155.785 272.911C155.89 286.287 151.675 299.828 154.684 312.861C155.391 315.921 156.486 318.885 157.097 321.966C157.887 325.956 157.848 330.059 158.262 334.106C158.711 338.488 159.689 342.799 161.177 346.945C160.183 348.528 158.114 349.135 156.25 349.007C154.387 348.879 152.644 348.069 150.982 347.217C142.931 343.092 135.556 337.653 127.218 334.147C121.701 331.828 115.823 330.383 110.471 327.704C105.12 325.026 100.142 320.774 98.5056 315.012C97.798 312.52 97.7545 309.895 97.7158 307.305C97.5532 296.395 97.4021 285.367 99.7738 274.718C101.865 265.327 105.897 256.343 106.777 246.762C107.063 243.643 107.069 240.304 108.809 237.702C111.269 234.023 116.581 233.071 118.328 229.004Z" fill="#2F2E41"/>
<path d="M129.114 215.25C130.087 213.979 131.965 213.806 133.52 214.182C135.074 214.558 136.508 215.36 138.079 215.665C138.435 215.767 138.81 215.792 139.177 215.741C139.545 215.689 139.897 215.561 140.212 215.365C140.761 214.824 141.09 214.098 141.133 213.327C141.683 210.051 141.812 206.717 141.516 203.407C141.434 202.943 141.465 202.466 141.606 202.016C141.995 201.078 143.181 200.855 144.15 200.554C145.748 200.013 147.121 198.954 148.051 197.545C148.982 196.136 149.417 194.457 149.288 192.773C149.264 191.965 148.925 191.199 148.343 190.638C147.674 190.091 146.736 190.058 145.872 190.051C141.432 190.015 136.991 190.016 132.551 190.054C130.908 190.068 129.182 190.108 127.757 190.929C126.704 191.535 125.921 192.511 124.975 193.275C122.509 195.268 119.173 195.673 116.173 196.695C114.708 197.112 113.378 197.906 112.315 198.998C111.317 200.139 110.837 201.837 111.464 203.217C111.786 203.793 112.145 204.347 112.54 204.875C114.309 207.708 113.131 211.383 113.395 214.715C113.725 218.875 119.874 225.623 124.044 226.607C130.775 228.196 126.886 217.981 129.114 215.25Z" fill="#2F2E41"/>
<path d="M119.789 397.639C120.214 400.676 120.759 403.724 120.613 406.788C120.41 411.065 118.869 415.186 118.585 419.458C118.372 422.649 118.864 425.875 118.421 429.042C118.138 431.07 117.477 433.025 117.068 435.031C116.421 438.301 116.439 441.668 117.122 444.931C117.805 448.193 119.139 451.284 121.044 454.018C121.323 454.486 121.721 454.872 122.197 455.137C122.653 455.307 123.142 455.371 123.627 455.327C128.434 455.229 133.229 454.792 137.975 454.021C138.323 454.007 138.652 453.861 138.897 453.614C139.004 453.45 139.072 453.264 139.097 453.069C139.977 448.54 137.97 443.998 137.459 439.412C136.915 434.515 138.088 429.608 139.253 424.821C139.781 422.459 140.441 420.129 141.23 417.842C141.793 416.302 142.473 414.805 142.961 413.24C143.652 410.781 144.073 408.254 144.216 405.704C144.555 401.68 144.734 397.647 144.754 393.605C144.87 389.774 144.551 385.943 143.805 382.184C142.735 377.425 140.542 373.006 138.369 368.64C137.207 368.918 136.116 369.437 135.167 370.163C132.366 371.979 129.442 373.597 126.416 375.004C124.383 375.949 120.418 376.621 119.128 378.592C117.855 380.535 118.676 384.499 118.773 386.643C118.94 390.321 119.279 393.986 119.789 397.639Z" fill="#2F2E41"/>
<path opacity="0.1" d="M119.789 397.639C120.214 400.676 120.759 403.724 120.613 406.788C120.41 411.065 118.869 415.186 118.585 419.458C118.372 422.649 118.864 425.875 118.421 429.042C118.138 431.07 117.477 433.025 117.068 435.031C116.421 438.301 116.439 441.668 117.122 444.931C117.805 448.193 119.139 451.284 121.044 454.018C121.323 454.486 121.721 454.872 122.197 455.137C122.653 455.307 123.142 455.371 123.627 455.327C128.434 455.229 133.229 454.792 137.975 454.021C138.323 454.007 138.652 453.861 138.897 453.614C139.004 453.45 139.072 453.264 139.097 453.069C139.977 448.54 137.97 443.998 137.459 439.412C136.915 434.515 138.088 429.608 139.253 424.821C139.781 422.459 140.441 420.129 141.23 417.842C141.793 416.302 142.473 414.805 142.961 413.24C143.652 410.781 144.073 408.254 144.216 405.704C144.555 401.68 144.734 397.647 144.754 393.605C144.87 389.774 144.551 385.943 143.805 382.184C142.735 377.425 140.542 373.006 138.369 368.64C137.207 368.918 136.116 369.437 135.167 370.163C132.366 371.979 129.442 373.597 126.416 375.004C124.383 375.949 120.418 376.621 119.128 378.592C117.855 380.535 118.676 384.499 118.773 386.643C118.94 390.321 119.279 393.986 119.789 397.639Z" fill="black"/>
<path d="M97.4584 332.763C95.265 338.676 98.4892 345.065 101.29 350.715C108.192 364.634 112.984 379.486 117.751 394.274C118.108 395.382 118.464 396.59 118.066 397.684C117.723 398.461 117.165 399.124 116.458 399.594C113.171 402.094 108.986 402.984 105.071 404.291C101.287 405.556 97.6634 407.257 94.2725 409.36C91.4354 411.12 88.7777 413.152 86.1252 415.18L77.6815 421.637C77.1348 422.007 76.6571 422.47 76.2701 423.005C75.4557 424.284 75.7893 425.954 76.1948 427.416C77.2685 431.286 78.651 435.064 80.3289 438.712C80.605 439.512 81.1306 440.202 81.8282 440.679C83.1461 441.388 84.7581 440.448 85.7646 439.34C86.771 438.231 87.6414 436.852 89.0601 436.376C90.4772 435.901 92.0368 436.476 93.5167 436.268C95.9102 435.932 97.4993 433.724 99.2246 432.029C106.274 425.105 118.042 425.608 125.797 419.486C126.917 418.481 128.104 417.553 129.349 416.708C130.659 415.932 132.146 415.506 133.506 414.82C137.643 412.735 140.244 408.423 141.637 404C143.03 399.578 143.427 394.909 144.428 390.382C144.946 388.041 145.627 385.726 145.857 383.339C146.005 381.12 145.957 378.892 145.713 376.681L142.915 342.027C142.687 339.205 142.459 336.381 142.017 333.585C133.707 333.882 125.403 334.217 117.089 334.315C110.473 334.394 103.736 334.857 97.4584 332.763Z" fill="#2F2E41"/>
<path d="M94.4037 340.87C95.531 342.685 98.2745 342.648 100.164 341.653C102.053 340.657 103.521 338.986 105.414 337.999C107.959 336.673 110.97 336.723 113.838 336.804C118.378 336.933 122.973 337.069 127.341 338.315C131.858 339.603 136.256 342.084 140.928 341.589C141.741 341.503 142.629 341.269 143.072 340.581C143.331 340.083 143.453 339.524 143.425 338.963L143.578 334.876C143.671 334.17 143.558 333.451 143.253 332.807C142.861 332.272 142.323 331.86 141.705 331.62C135.056 328.398 127.473 327.798 120.091 327.545C116.338 327.416 112.583 327.363 108.828 327.386C105.64 327.405 101.814 326.943 98.7154 327.796C94.5568 328.941 92.2939 337.473 94.4037 340.87Z" fill="#2F2E41"/>
<path d="M136.153 233.855C127.441 233.778 119.547 228.02 110.836 227.88C109.783 227.807 108.729 227.989 107.762 228.411C106.548 229.023 105.75 230.207 104.828 231.207C102.252 234 98.5221 235.491 95.876 238.217C93.3949 240.772 92.015 244.58 92.9946 248.007C93.9741 251.433 97.6711 254.062 101.134 253.238C102.53 248.716 105.41 244.798 109.307 242.12C111.335 240.817 113.473 239.694 115.695 238.763C119.61 236.987 123.988 235.177 128.076 236.508C129.583 237.078 131.004 237.854 132.299 238.814L139.114 243.397C138.32 240.261 137.606 236.745 136.153 233.855Z" fill="#6C63FF"/>
<path d="M100.131 250.206C98.9741 251.651 100.641 253.745 100.385 255.579C100.216 256.798 99.2144 257.728 98.7973 258.886C98.3653 260.084 98.5944 261.412 98.4305 262.676C98.2661 263.595 98.0229 264.498 97.7036 265.376C96.9697 267.996 96.4574 270.674 96.1722 273.381L94.6474 284.782C94.3827 286.498 94.2217 288.228 94.1651 289.964C94.242 291.26 94.1554 292.562 93.9073 293.837C93.5697 295.083 92.822 296.173 92.3191 297.362C91.8161 298.551 91.583 299.988 92.2624 301.086C89.9871 302.983 89.3105 306.71 90.9015 309.21C91.2044 309.6 91.4413 310.037 91.6028 310.503C91.6907 311.155 91.5832 311.819 91.2939 312.41L89.7521 316.523C89.3574 317.576 89.2326 319.179 90.3298 319.419C89.421 320.364 88.7129 321.484 88.2484 322.711C88.023 323.327 87.9557 323.989 88.0525 324.638C88.1494 325.287 88.4073 325.901 88.8027 326.424C89.1858 326.76 89.512 327.157 89.7686 327.598C89.9194 328.212 89.8805 328.857 89.657 329.449C89.4264 330.347 89.382 331.283 89.5264 332.199C89.6708 333.115 90.001 333.992 90.4967 334.776C91.0103 335.549 91.7377 336.155 92.5899 336.521C93.4422 336.887 94.3824 336.996 95.2957 336.835C98.38 336.139 101.152 335.039 104.261 335.611C110.957 336.841 117.675 338.076 124.16 340.149C131.562 342.515 138.729 345.985 146.464 346.713C146.973 346.818 147.503 346.735 147.956 346.481C148.35 346.107 148.595 345.603 148.646 345.061C149.443 341.32 150.24 337.579 151.037 333.837C152 329.69 152.734 325.493 153.234 321.265C153.506 318.536 153.584 315.792 153.661 313.05L154.278 291.229C154.566 288.014 154.138 284.774 153.023 281.744L149.479 270.415C147.456 263.95 142.816 258.217 141.164 251.648C140.119 247.49 139.346 243.027 136.542 239.787C132.545 235.166 125.629 234.448 119.575 235.242C116.84 235.601 114.082 236.22 111.717 237.64C108.981 239.282 106.966 241.869 105.017 244.396C103.41 246.479 101.775 248.153 100.131 250.206Z" fill="#6C63FF"/>
<path d="M114.265 314.388C114.764 316.541 115.812 318.527 116.453 320.642C117.527 324.186 117.436 328.002 118.508 331.546C118.958 333.034 119.61 334.462 119.933 335.983C120.686 339.528 119.586 343.195 118.221 346.551C116.855 349.907 115.192 353.216 114.748 356.813C114.436 359.346 114.885 362.207 116.835 363.851C118.86 365.558 121.802 365.442 124.439 365.215C125.386 365.188 126.32 364.994 127.199 364.639C129.215 363.684 130.065 361.295 130.536 359.112C132.116 351.795 131.665 344.211 131.206 336.74L130.005 317.2C129.774 313.438 129.526 309.599 128.368 305.987C127.947 304.673 127.213 302.018 126.014 301.179C124.827 300.348 121.437 300.311 119.967 300.242C113.07 299.918 113.148 309.555 114.265 314.388Z" fill="#FBBEBE"/>
<path d="M121.907 242.244C120.498 241.506 118.724 241.824 117.362 242.646C116.048 243.547 114.896 244.667 113.958 245.955C110.914 249.675 107.692 253.943 108.144 258.73C108.313 260.525 109 262.224 109.465 263.965C111.505 271.602 109.249 279.678 109.508 287.579C109.658 292.145 110.65 296.635 111.638 301.095C111.839 302.005 112.162 303.058 113.042 303.365C113.702 303.595 114.416 303.299 115.07 303.05C117.505 302.149 120.122 301.848 122.698 302.173C125.274 302.498 127.734 303.44 129.87 304.918C131.503 304.045 130.891 301.286 130.525 299.469C129.437 294.071 130.914 288.503 132.708 283.297C134.501 278.091 136.647 272.892 136.944 267.393C137.281 261.162 135.218 255.081 133.182 249.184C132.738 247.897 132.252 246.547 131.222 245.658C130.34 245.001 129.329 244.538 128.256 244.301C126.093 243.661 123.904 243.291 121.907 242.244Z" fill="#2F2E41"/>
</g>
<defs>
<clipPath id="clip0">
<rect width="642" height="488" fill="white"/>
</clipPath>
</defs>
</svg>
